<svg width="80" height="24" viewBox="0 0 80 24" fill="none" xmlns="http://www.w3.org/2000/svg">
<path d="M14.6925 12.7215C14.9525 12.8098 15.2551 12.9412 15.6002 13.1156C16.2054 13.4667 16.7232 13.947 17.158 14.5586C17.678 15.4329 17.9358 16.4817 17.9358 17.705C17.9358 21.9024 15.4254 24 10.4091 24H0.679071C0.419065 24 0.289062 23.8686 0.289062 23.6059V3.40916C0.289062 3.14639 0.419065 3.01501 0.679071 3.01501H10.9313C12.7491 3.01501 14.2173 3.52015 15.3425 4.52364C16.4654 5.5294 17.0303 6.86361 17.0303 8.52402C17.0303 9.48674 16.8129 10.3385 16.3825 11.0815C15.9477 11.8267 15.3851 12.3726 14.6925 12.7215ZM10.2813 20.9827C11.7517 20.9827 12.8321 20.7426 13.5247 20.2624C14.215 19.7822 14.5625 18.9508 14.5625 17.7706C14.5625 16.5905 14.215 15.7614 13.5247 15.2789C12.8321 14.7987 11.7495 14.5586 10.2813 14.5586H4.18242C3.835 14.5586 3.66241 14.6899 3.66241 14.9527V20.5931C3.66241 20.8559 3.835 20.9873 4.18242 20.9873H10.2813V20.9827ZM4.18242 6.03228C3.92241 6.03228 3.79241 6.16366 3.79241 6.42643V11.1471C3.79241 11.4099 3.92241 11.5413 4.18242 11.5413H10.1513C12.3995 11.5413 13.5247 10.6239 13.5247 8.78679C13.5247 6.94969 12.3995 6.03228 10.1513 6.03228H4.18242ZM35.717 12.7215C35.977 12.8098 36.237 12.9412 36.4948 13.1156C37.1852 13.4667 37.7052 13.947 38.0526 14.5586C38.6578 15.4329 38.9604 16.4817 38.9604 17.705C38.9604 21.9024 36.45 24 31.4337 24H21.7014C21.4414 24 21.3114 23.8686 21.3114 23.6059V3.40916C21.3114 3.14639 21.4414 3.01501 21.7014 3.01501H31.9537C33.6841 3.01501 35.132 3.52015 36.302 4.52364C37.4698 5.5294 38.0548 6.86361 38.0548 8.52402C38.0548 9.48674 37.8374 10.3385 37.4071 11.0815C36.97 11.8267 36.4074 12.3726 35.717 12.7215ZM25.0747 6.03228C24.8147 6.03228 24.6847 6.16366 24.6847 6.42643V11.1471C24.6847 11.4099 24.8147 11.5413 25.0747 11.5413H31.1737C33.4218 11.5413 34.547 10.6239 34.547 8.78679C34.547 6.94969 33.4218 6.03228 31.1737 6.03228H25.0747ZM31.3037 20.9827C32.774 20.9827 33.8544 20.7426 34.547 20.2624C35.2374 19.7822 35.5848 18.9508 35.5848 17.7706C35.5848 16.5905 35.2374 15.7614 34.547 15.2789C33.8544 14.7987 32.7718 14.5586 31.3037 14.5586H25.0747C24.8147 14.5586 24.6847 14.6899 24.6847 14.9527V20.5931C24.6847 20.8559 24.8147 20.9873 25.0747 20.9873H31.3037V20.9827ZM57.5171 3.27777C57.6023 3.10335 57.6897 3.01501 57.7771 3.01501H61.1505C61.2357 3.01501 61.3231 3.06031 61.4105 3.14639C61.4957 3.23473 61.4957 3.32308 61.4105 3.40916L50.6404 23.8686C50.553 23.957 50.4454 24 50.3154 24C50.1854 24 50.0756 23.957 49.9904 23.8686L39.2204 3.40916C39.133 3.32308 39.1105 3.23473 39.1554 3.14639C39.198 3.06031 39.3056 3.01501 39.4804 3.01501H42.7237C42.8963 3.01501 43.0263 3.10335 43.1137 3.27777L49.9904 16.3934C49.9904 16.4817 50.0756 16.5248 50.2504 16.5248C50.423 16.5248 50.553 16.4817 50.6404 16.3934L57.5171 3.27777ZM61.4105 20.7222C61.3231 20.8989 61.1931 20.985 61.0205 20.985H57.6471C57.5597 20.985 57.4947 20.942 57.4521 20.8536C57.4073 20.7675 57.3871 20.6792 57.3871 20.5908L68.1594 0.131383C68.2446 0.0453044 68.3746 0 68.5494 0C68.722 0 68.852 0.0453044 68.9394 0.131383L79.7072 20.5908C79.7072 20.6792 79.6848 20.7675 79.6423 20.8536C79.5974 20.942 79.5324 20.985 79.4472 20.985H76.0739C75.8991 20.985 75.7691 20.8989 75.6839 20.7222L68.935 7.60661C68.8475 7.43218 68.7175 7.34384 68.5449 7.34384C68.3701 7.34384 68.2401 7.43218 68.1549 7.60661L61.4105 20.7222Z" fill="#FEF7FB"/>
</svg>
