<svg width="258" height="258" viewBox="0 0 258 258" fill="none" xmlns="http://www.w3.org/2000/svg">
<path d="M257 129C257 156.031 248.443 182.368 232.554 204.237C216.666 226.105 194.262 242.382 168.554 250.735C142.846 259.088 115.154 259.088 89.4458 250.735C63.7378 242.382 41.3342 226.105 25.4458 204.236C9.55742 182.368 0.99999 156.031 1 129C1.00001 101.969 9.55746 75.6319 25.4459 53.7634C41.3343 31.895 63.7379 15.6178 89.4459 7.26474C115.154 -1.08826 142.846 -1.08825 168.554 7.26479L160.643 31.6118C140.077 24.9294 117.923 24.9294 97.3567 31.6118C76.7903 38.2942 58.8674 51.316 46.1567 68.8108C33.446 86.3055 26.6 107.375 26.6 129C26.6 150.625 33.4459 171.694 46.1566 189.189C58.8673 206.684 76.7903 219.706 97.3566 226.388C117.923 233.071 140.077 233.071 160.643 226.388C181.21 219.706 199.133 206.684 211.843 189.189C224.554 171.694 231.4 150.625 231.4 129L257 129Z" fill="#E5006D" stroke="white"/>
<path d="M232.554 53.7635C248.443 75.632 257 101.969 257 129L231.4 129C231.4 107.375 224.554 86.3056 211.843 68.8108L232.554 53.7635Z" fill="#E6332F" stroke="white"/>
<path d="M168.554 7.26477C194.262 15.6178 216.666 31.895 232.554 53.7635L211.843 68.8108C199.133 51.316 181.21 38.2942 160.643 31.6118L168.554 7.26477Z" fill="#2F52A0" stroke="white"/>
<path d="M126.641 121.685C126.513 120.396 125.965 119.395 124.995 118.681C124.026 117.967 122.71 117.61 121.048 117.61C119.919 117.61 118.965 117.77 118.188 118.089C117.41 118.398 116.813 118.83 116.398 119.384C115.993 119.938 115.791 120.566 115.791 121.27C115.769 121.855 115.892 122.367 116.158 122.804C116.435 123.24 116.813 123.619 117.293 123.938C117.772 124.247 118.326 124.519 118.955 124.753C119.583 124.977 120.254 125.169 120.968 125.328L123.909 126.032C125.336 126.351 126.647 126.777 127.84 127.31C129.033 127.843 130.066 128.498 130.94 129.276C131.813 130.053 132.49 130.969 132.969 132.024C133.459 133.079 133.71 134.288 133.72 135.652C133.71 137.654 133.198 139.391 132.186 140.861C131.185 142.321 129.736 143.455 127.84 144.265C125.954 145.064 123.68 145.463 121.016 145.463C118.374 145.463 116.073 145.059 114.113 144.249C112.163 143.439 110.64 142.241 109.542 140.653C108.456 139.055 107.886 137.079 107.833 134.725H114.528C114.603 135.822 114.917 136.738 115.471 137.473C116.036 138.198 116.787 138.746 117.724 139.119C118.672 139.482 119.743 139.663 120.936 139.663C122.108 139.663 123.126 139.492 123.988 139.151C124.862 138.81 125.539 138.336 126.018 137.729C126.497 137.122 126.737 136.424 126.737 135.636C126.737 134.901 126.519 134.283 126.082 133.782C125.656 133.281 125.027 132.855 124.196 132.504C123.376 132.152 122.369 131.832 121.176 131.545L117.612 130.65C114.853 129.979 112.675 128.929 111.077 127.502C109.479 126.074 108.685 124.151 108.696 121.733C108.685 119.751 109.212 118.02 110.278 116.539C111.354 115.059 112.829 113.903 114.704 113.072C116.579 112.241 118.71 111.825 121.096 111.825C123.525 111.825 125.645 112.241 127.456 113.072C129.278 113.903 130.695 115.059 131.707 116.539C132.719 118.02 133.241 119.735 133.273 121.685H126.641ZM152.251 110.739L141.704 149.922H135.839L146.386 110.739H152.251Z" fill="#010101" fill-opacity="0.6"/>
</svg>
