<svg width="48" height="50" viewBox="0 0 48 50" fill="none" xmlns="http://www.w3.org/2000/svg">
<path d="M1 39.0754C0.999605 38.8651 1.17024 38.6941 1.38047 38.6941L9.27507 38.6842C10.483 38.6826 11.609 38.0848 12.2868 37.0851L13.6198 35.1191C14.148 34.3403 14.9279 33.7408 15.8168 33.4313L28.2276 29.1063C29.5599 28.6423 31.0402 29.2433 31.6717 30.5047C32.0272 31.2154 32.0656 32.048 31.777 32.7883C31.4884 33.5286 30.8965 34.115 30.1537 34.3969C28.7953 34.9124 26.9199 35.627 25.6989 36.1029C24.9411 36.3983 24.3318 36.9656 23.9821 37.7001L23.5331 38.6447L32.912 38.0956C33.6535 38.052 34.348 37.7792 34.92 37.3057L39.8207 33.2536C40.59 32.6173 41.6557 32.533 42.5082 33.0101L43.1852 32.44C44.1881 31.5959 45.6661 31.6343 46.6234 32.5302C47.1436 33.0168 47.435 33.6772 47.4437 34.3899C47.4524 35.1021 47.1777 35.7696 46.6697 36.2689L37.3372 45.4427C36.3526 46.4107 35.0511 46.9892 33.673 47.0714L1.4484 48.9992C1.44048 48.9996 1.43296 49 1.42504 49C1.2251 49 1.05724 48.844 1.04496 48.6417C1.03229 48.4319 1.19264 48.2513 1.40247 48.2386L33.6271 46.3113C34.8216 46.24 35.9491 45.7384 36.8027 44.8998L46.1353 35.726C46.494 35.3737 46.6879 34.9025 46.6816 34.3997C46.6753 33.8969 46.4698 33.4309 46.1028 33.0873C45.427 32.455 44.3837 32.4277 43.6759 33.0235L43.1168 33.4939C43.4803 33.8953 43.6992 34.4104 43.7305 34.9619C43.7705 35.6733 43.4945 36.3599 42.9735 36.8453L37.7003 41.7586C36.9338 42.4729 35.9353 42.9032 34.8898 42.9697L32.2763 43.136C32.268 43.1364 32.2601 43.1368 32.2518 43.1368C32.0527 43.1368 31.8848 42.982 31.8721 42.7801C31.8587 42.5702 32.0182 42.3893 32.228 42.3758L34.8415 42.2095C35.7121 42.1541 36.5427 41.7962 37.1809 41.2015L42.4541 36.2882C42.8092 35.9572 42.9973 35.4896 42.97 35.005C42.9427 34.5204 42.7031 34.0766 42.3131 33.788C41.7098 33.341 40.8842 33.3632 40.3058 33.8414L35.4051 37.8936C34.7071 38.4708 33.8603 38.8038 32.956 38.8568L22.9346 39.4436C22.7992 39.4515 22.6717 39.3878 22.5965 39.2761C22.5212 39.1645 22.5106 39.0216 22.5684 38.8996L23.2941 37.3733C23.7272 36.4627 24.4827 35.7595 25.4221 35.3934C26.6455 34.9163 28.5234 34.2008 29.8833 33.6846C30.425 33.4788 30.8569 33.0515 31.0676 32.5115C31.2782 31.9715 31.2501 31.3646 30.9908 30.8459C30.5303 29.9258 29.4503 29.4875 28.4787 29.8261L16.0678 34.1511C15.333 34.4072 14.6877 34.9029 14.251 35.547L12.9179 37.5131C12.0984 38.7218 10.7368 39.4448 9.27668 39.4463L1.38138 39.4558C1.17115 39.4558 1.0004 39.2856 1 39.0754ZM27.1778 18.9119V13.4099C25.4176 13.2195 24.0429 11.7249 24.0429 9.91519C24.0429 8.1051 25.4179 6.61083 27.1778 6.42049V4.84513C27.1778 4.6349 27.3485 4.46426 27.5587 4.46426C27.7689 4.46426 27.9396 4.6349 27.9396 4.84513V6.42008C29.6998 6.61052 31.0745 8.1051 31.0745 9.91478C31.0745 10.125 30.9038 10.2957 30.6936 10.2957C30.4834 10.2957 30.3127 10.125 30.3127 9.91478C30.3127 8.52552 29.2786 7.37383 27.9396 7.18774V12.6898C29.6998 12.8802 31.0745 14.3748 31.0745 16.1845C31.0745 17.9942 29.6995 19.4888 27.9396 19.6792V21.2541C27.9396 21.4643 27.769 21.635 27.5587 21.635C27.3485 21.635 27.1779 21.4643 27.1779 21.2541V19.6792C25.4176 19.4887 24.043 17.9942 24.043 16.1845C24.043 15.9742 24.2136 15.8036 24.4238 15.8036C24.6341 15.8036 24.8047 15.9742 24.8047 16.1845C24.8051 17.5741 25.8392 18.7258 27.1778 18.9119ZM27.94 13.4578V18.9119C29.2789 18.7258 30.3131 17.5741 30.3131 16.1849C30.3131 14.7956 29.2785 13.6439 27.94 13.4578ZM27.1778 12.6418V7.18776C25.8388 7.37384 24.8047 8.52554 24.8047 9.9148C24.8051 11.3041 25.8392 12.4558 27.1778 12.6418ZM15.5099 13.05C15.5099 6.40574 20.9153 1 27.5599 1C34.2042 1 39.61 6.40544 39.61 13.05C39.61 19.6943 34.2045 25.1001 27.5599 25.1001C20.9156 25.0997 15.5099 19.6942 15.5099 13.05ZM16.272 13.05C16.272 19.2742 21.3358 24.3379 27.5599 24.3379C33.7841 24.3379 38.8477 19.2741 38.8477 13.05C38.8477 6.82585 33.784 1.76219 27.5599 1.76219C21.3357 1.76219 16.272 6.82596 16.272 13.05ZM17.379 13.05C17.379 7.43672 21.946 2.86999 27.5591 2.86999C33.1722 2.86999 37.7391 7.43692 37.7391 13.05C37.7391 18.6633 33.1722 23.2301 27.5591 23.2301C21.946 23.2301 17.379 18.6631 17.379 13.05ZM18.1412 13.05C18.1412 18.2432 22.3664 22.4685 27.5596 22.4685C32.7528 22.4685 36.9781 18.2432 36.9781 13.05C36.9781 7.85683 32.7528 3.63157 27.5596 3.63157C22.366 3.63117 18.1412 7.85643 18.1412 13.05Z" fill="#010101" fill-opacity="0.3" stroke="#010101" stroke-opacity="0.3" stroke-width="0.5"/>
</svg>
