<svg width="20" height="20" viewBox="0 0 20 20" fill="none" xmlns="http://www.w3.org/2000/svg">
<path d="M0 3.14065C0 2.50147 0.225232 1.97417 0.675676 1.55873C1.12612 1.14327 1.71172 0.935547 2.43243 0.935547C3.14029 0.935547 3.71299 1.14006 4.15058 1.54914C4.60102 1.97098 4.82625 2.52065 4.82625 3.19817C4.82625 3.81176 4.60747 4.32308 4.16988 4.73215C3.71944 5.154 3.12741 5.36492 2.39382 5.36492H2.37452C1.66666 5.36492 1.09396 5.154 0.656371 4.73215C0.218784 4.31031 0 3.7798 0 3.14065ZM0.250965 19.9186V7.10982H4.53668V19.9186H0.250965ZM6.9112 19.9186H11.1969V12.7664C11.1969 12.319 11.2484 11.9738 11.3514 11.7309C11.5315 11.2963 11.805 10.9288 12.1718 10.6284C12.5386 10.328 12.9987 10.1778 13.5521 10.1778C14.9936 10.1778 15.7143 11.1429 15.7143 13.0732V19.9186H20V12.5746C20 10.6827 19.5496 9.24781 18.6486 8.2699C17.7477 7.29198 16.5573 6.80303 15.0772 6.80303C13.417 6.80303 12.1236 7.51249 11.1969 8.93143V8.96977H11.1776L11.1969 8.93143V7.10982H6.9112C6.93693 7.51888 6.94981 8.7908 6.94981 10.9256C6.94981 13.0604 6.93693 16.058 6.9112 19.9186Z" fill="#E5006D"/>
</svg>
