<svg width="33" height="50" viewBox="0 0 33 50" fill="none" xmlns="http://www.w3.org/2000/svg">
<path d="M20.7122 30.9222L19.3961 30.4166V28.3C21.8726 27.3909 23.8244 25.4105 24.6456 24.0343C24.8696 23.659 25.0783 23.2124 25.2696 22.706C26.3794 22.6898 27.4273 21.8619 27.8867 20.5966C28.4513 19.041 27.8863 17.3544 26.6274 16.7708C26.8959 16.3044 27.3061 15.4817 27.6017 14.383C28.0304 12.7882 28.2871 10.2851 27.0746 7.41635C26.0334 4.95249 24.3922 3.17044 22.1971 2.11887C20.646 1.37652 18.8116 1 16.7448 1C14.678 1 12.8435 1.37652 11.2928 2.11928C9.09779 3.17044 7.45701 4.95289 6.41566 7.41635C5.20279 10.2856 5.45944 12.7886 5.88854 14.383C6.18418 15.4821 6.59438 16.3052 6.86326 16.7711C5.60474 17.3551 5.04017 19.0413 5.60473 20.5965C6.05667 21.8404 7.12781 22.6822 8.23123 22.7048C8.42176 23.2195 8.62766 23.6673 8.84654 24.0343C9.15321 24.5482 9.61773 25.1469 10.2083 25.742C9.15633 26.5172 8.51901 27.7572 8.51901 29.0863C8.51901 30.3857 9.12643 31.598 10.135 32.376C6.59242 34.7556 2.44507 39.4357 1.00272 48.5586C0.98343 48.6805 1.06886 48.7811 1.19129 48.7811C1.30978 48.92 1.4826 49 1.66487 49H31.8249C32.0072 49 32.18 48.9196 32.2985 48.7803C32.4178 48.6401 32.4702 48.4536 32.4398 48.2715C30.5573 36.9287 24.4609 32.5601 20.7122 30.9222ZM20.1268 31.5002C19.9957 32.5546 19.5772 33.3741 18.9331 33.8247C18.4603 34.1557 17.8781 34.2702 17.2317 34.1621C17.6537 32.9311 18.2725 31.933 19.113 31.1249C19.4189 31.2251 19.759 31.3486 20.1268 31.5002ZM16.2578 34.1625C15.6118 34.2698 15.0292 34.1557 14.5563 33.8247C13.9119 33.3742 13.4938 32.5547 13.3627 31.5002C13.7304 31.3482 14.0705 31.2251 14.3764 31.1249C15.2169 31.9334 15.8357 32.9315 16.2578 34.1625ZM14.8512 30.5295L14.852 28.5372C15.4602 28.6975 16.0936 28.7902 16.7459 28.7902C17.3974 28.7902 18.0309 28.6975 18.6386 28.5376V30.5294C17.8387 31.2868 17.2046 32.2212 16.7451 33.3171C16.2853 32.2213 15.6512 31.2869 14.8512 30.5295ZM14.1241 34.4507C14.613 34.7924 15.1779 34.965 15.7929 34.965C16.0988 34.965 16.4176 34.9199 16.7444 34.834C17.0715 34.9199 17.39 34.965 17.6963 34.965C18.3112 34.965 18.8765 34.7924 19.3651 34.4507C19.5753 34.3034 19.7658 34.1276 19.9367 33.9269C19.4855 37.6914 18.4163 41.3687 16.7448 44.8987C15.071 41.3623 14.0025 37.691 13.5517 33.9269C13.7234 34.1273 13.9139 34.3034 14.1241 34.4507ZM27.175 20.3348C26.8714 21.1706 26.2278 21.7709 25.5396 21.9126C25.9223 20.6689 26.2124 19.1585 26.3805 17.4988C27.2359 17.9501 27.5938 19.1812 27.175 20.3348ZM7.11292 7.71397C8.78242 3.76423 12.0232 1.76133 16.7452 1.76133C21.4671 1.76133 24.7079 3.76392 26.3774 7.71397C28.1937 12.0117 26.5061 15.4756 25.9223 16.4698C22.0116 14.1422 19.1489 9.38402 17.0798 5.46458C16.9125 5.14071 16.5861 5.12844 16.4109 5.46458C14.3423 9.38422 11.4787 14.1424 7.56841 16.4698C6.9846 15.4757 5.29653 12.0118 7.11292 7.71397ZM6.31614 20.3348C5.89649 19.1784 6.25631 17.9451 7.11608 17.4961C7.30228 19.1744 7.59556 20.6852 7.96679 21.9138C7.27157 21.7752 6.6209 21.1742 6.31614 20.3348ZM9.49622 23.642C8.75101 22.3929 8.13843 19.9924 7.84516 17.1884C9.36742 16.3028 10.7331 15.0758 11.9566 13.675L12.8467 12.5969C14.3745 10.6427 15.6611 8.46191 16.7452 6.44867C17.829 8.46191 19.1156 10.6431 20.6434 12.5969L21.5315 13.6727C22.7569 15.0758 24.1245 16.3052 25.65 17.1916C25.4697 19.1281 25.1232 20.8531 24.6599 22.1724C24.6552 22.1839 24.6512 22.1954 24.6477 22.2076C24.4505 22.7643 24.232 23.2482 23.9966 23.6428C22.9849 25.3385 20.1221 28.0288 16.7465 28.0288C13.3704 28.028 10.5075 25.3377 9.49622 23.642ZM9.27655 29.0859C9.27655 27.9524 9.84422 26.8981 10.7729 26.2729C11.6866 27.0798 12.8207 27.8312 14.0951 28.2992L14.0943 30.4162L12.7782 30.9218C12.1787 31.1835 11.5193 31.5157 10.8264 31.9346C9.8655 31.315 9.27655 30.2424 9.27655 29.0859ZM7.82231 48.2382V41.3202C7.82231 41.11 7.65264 40.9394 7.44361 40.9394C7.23457 40.9394 7.0649 41.11 7.0649 41.3202V48.2382H1.8248C3.60103 37.8279 9.01043 33.5537 12.6071 31.8367C12.8858 36.7022 14.1609 41.428 16.4041 45.9313C16.4092 45.942 16.4139 45.9531 16.4202 45.9634C16.8021 46.7283 17.2115 47.4869 17.6492 48.2387L7.82231 48.2382ZM26.4261 48.2382V41.3202C26.4261 41.11 26.2564 40.9394 26.0474 40.9394C25.8383 40.9394 25.6687 41.11 25.6687 41.3202V48.2382H18.5311C18.0438 47.4218 17.5894 46.5974 17.1698 45.7653C19.3597 41.3199 20.6077 36.6377 20.8833 31.8359C24.4802 33.5538 29.89 37.8278 31.6666 48.2374L26.4261 48.2382Z" fill="#010101" fill-opacity="0.3" stroke="#010101" stroke-opacity="0.3" stroke-width="0.5"/>
</svg>
