<svg width="18" height="19" viewBox="0 0 18 19" fill="none" xmlns="http://www.w3.org/2000/svg">
<path fill-rule="evenodd" clip-rule="evenodd" d="M8.996 2.55655C11.4 2.55655 11.682 2.56755 12.632 2.61055C13.511 2.65055 13.986 2.79655 14.304 2.92055C14.725 3.08555 15.025 3.27855 15.339 3.59255C15.654 3.90655 15.85 4.20655 16.011 4.62855C16.132 4.94655 16.282 5.42155 16.321 6.29955C16.364 7.24955 16.375 7.53155 16.375 9.93555C16.375 12.3395 16.365 12.6215 16.321 13.5715C16.282 14.4495 16.136 14.9245 16.011 15.2425C15.8671 15.6337 15.6375 15.9877 15.339 16.2785C15.0493 16.5777 14.6954 16.8071 14.304 16.9495C13.986 17.0715 13.511 17.2215 12.632 17.2605C11.682 17.3035 11.4 17.3145 8.996 17.3145C6.593 17.3145 6.311 17.3035 5.361 17.2605C4.482 17.2205 4.007 17.0745 3.689 16.9505C3.29821 16.8065 2.94458 16.5769 2.654 16.2785C2.35433 15.9886 2.12454 15.6344 1.982 15.2425C1.861 14.9245 1.711 14.4495 1.672 13.5715C1.629 12.6215 1.618 12.3395 1.618 9.93555C1.618 7.53155 1.628 7.24955 1.671 6.29955C1.711 5.42155 1.857 4.94655 1.982 4.62855C2.146 4.20655 2.339 3.90655 2.654 3.59255C2.968 3.27855 3.268 3.08255 3.689 2.92155C4.007 2.79955 4.482 2.64955 5.361 2.61055C6.311 2.56455 6.593 2.55655 8.996 2.55655ZM8.996 0.935547C6.554 0.935547 6.246 0.945547 5.286 0.989547C4.329 1.03155 3.675 1.18555 3.104 1.40655C2.50329 1.63246 1.9595 1.98748 1.511 2.44655C1.011 2.94655 0.704 3.44955 0.471 4.03955C0.25 4.61055 0.0959999 5.26455 0.0539999 6.22455C0.0099999 7.18155 0 7.48955 0 9.93155C0 12.3745 0.0099999 12.6815 0.0539999 13.6425C0.0959999 14.5995 0.25 15.2525 0.471 15.8285C0.7 16.4215 1.011 16.9215 1.511 17.4215C2.011 17.9215 2.514 18.2285 3.104 18.4605C3.675 18.6815 4.329 18.8355 5.289 18.8785C6.25 18.9215 6.554 18.9315 9 18.9315C11.446 18.9315 11.75 18.9215 12.71 18.8785C13.668 18.8355 14.321 18.6815 14.896 18.4605C15.4967 18.2346 16.0405 17.8796 16.489 17.4205C16.989 16.9205 17.296 16.4175 17.529 15.8285C17.75 15.2565 17.904 14.6035 17.946 13.6425C17.989 12.6825 18 12.3785 18 9.93255C18 7.48555 17.99 7.18255 17.946 6.22155C17.904 5.26455 17.75 4.61055 17.529 4.03555C17.3031 3.43485 16.948 2.89106 16.489 2.44255C15.989 1.94255 15.486 1.63555 14.896 1.40255C14.325 1.18255 13.671 1.02855 12.711 0.985547C11.746 0.945547 11.439 0.935547 8.996 0.935547ZM8.996 5.31055C7.78208 5.3284 6.62392 5.82317 5.77179 6.68792C4.91966 7.55268 4.44198 8.71799 4.44198 9.93205C4.44198 11.1461 4.91966 12.3114 5.77179 13.1762C6.62392 14.0409 7.78208 14.5357 8.996 14.5535C10.2216 14.5528 11.3967 14.0655 12.2634 13.1989C13.13 12.3323 13.6172 11.1571 13.618 9.93155C13.6172 8.70605 13.13 7.53099 12.2633 6.66453C11.3967 5.79807 10.2215 5.31108 8.996 5.31055ZM8.996 12.9315C8.59749 12.9388 8.20153 12.8666 7.83124 12.7191C7.46095 12.5717 7.12376 12.3519 6.83936 12.0726C6.55497 11.7934 6.32907 11.4603 6.17486 11.0927C6.02065 10.7252 5.94123 10.3306 5.94123 9.93205C5.94123 9.53347 6.02065 9.13889 6.17486 8.77136C6.32907 8.40382 6.55497 8.0707 6.83936 7.79145C7.12376 7.5122 7.46095 7.29242 7.83124 7.14495C8.20153 6.99748 8.59749 6.92527 8.996 6.93255C9.79165 6.93255 10.5547 7.24862 11.1173 7.81123C11.6799 8.37384 11.996 9.1369 11.996 9.93255C11.996 10.7282 11.6799 11.4913 11.1173 12.0539C10.5547 12.6165 9.79165 12.9325 8.996 12.9325V12.9315ZM14.879 5.12855C14.879 5.27024 14.8511 5.41055 14.7969 5.54146C14.7426 5.67237 14.6632 5.79132 14.563 5.89152C14.4628 5.99171 14.3438 6.07119 14.2129 6.12541C14.082 6.17964 13.9417 6.20755 13.8 6.20755C13.6583 6.20755 13.518 6.17964 13.3871 6.12541C13.2562 6.07119 13.1372 5.99171 13.037 5.89152C12.9368 5.79132 12.8574 5.67237 12.8031 5.54146C12.7489 5.41055 12.721 5.27024 12.721 5.12855C12.721 4.84238 12.8347 4.56793 13.037 4.36558C13.2394 4.16323 13.5138 4.04955 13.8 4.04955C14.0862 4.04955 14.3606 4.16323 14.563 4.36558C14.7653 4.56793 14.879 4.84238 14.879 5.12855Z" fill="#E5006D"/>
</svg>
