<svg width="134" height="24" viewBox="0 0 134 24" fill="none" xmlns="http://www.w3.org/2000/svg">
<path d="M4.14854 0C3.30008 0.00581412 2.48835 0.347067 1.89045 0.949308C1.29255 1.55155 0.957011 2.36589 0.957031 3.21468V24H21.7569C22.6088 23.9988 23.4255 23.6598 24.0279 23.0572C24.6303 22.4545 24.9692 21.6375 24.9704 20.7853V0H4.14854ZM19.3577 17.3284L6.56969 19.6404V6.73762L19.3577 4.42569V17.3284Z" fill="#FEF7FB"/>
<path d="M66.0395 6.97977C62.2537 6.97977 59.5905 9.71004 59.5685 14.1137C59.5685 18.1431 62.782 20.6311 66.0615 20.6311C68.0205 20.6311 69.231 20.3229 69.9354 19.7504V17.5266C68.9175 17.9788 67.8135 18.2042 66.6998 18.1871C64.6749 18.1871 63.0461 17.0862 62.782 15.3247L62.7599 15.1706H65.1151C67.3381 15.1706 68.9009 14.9724 69.8913 14.488C70.8818 14.0036 71.3 13.255 71.3 12.066C71.3 8.91737 68.7688 6.97977 66.0395 6.97977ZM67.5802 12.7706C66.9639 12.9908 65.9955 13.0788 64.3887 13.0788H62.7379V12.9247L62.76 12.4843C62.826 10.899 64.0146 9.48984 65.7314 9.48984C66.4166 9.4573 67.0945 9.64225 67.6683 10.0183C67.9131 10.2062 68.109 10.4504 68.2393 10.7302C68.3696 11.0101 68.4304 11.3172 68.4166 11.6256C68.4387 12.1541 68.1966 12.5504 67.5802 12.7706ZM72.9288 12.066V20.4109H76.0322V12.6825C76.0322 11.6476 76.2303 10.899 76.6705 10.3926C77.1108 9.88617 77.727 9.688 78.4974 9.688C78.7776 9.68543 79.0575 9.70753 79.3338 9.75404V7.28799C78.8461 7.05662 78.3107 6.94348 77.7711 6.95772C74.2934 6.9797 72.9288 9.4458 72.9288 12.066ZM35.269 20.411V3.61096H32.1875V20.411H35.269ZM43.6109 6.97977C39.4729 6.97977 37.6901 9.79812 37.6681 12.5724V20.411H40.7495V12.7926C40.716 11.9644 40.9643 11.1494 41.4539 10.4807C41.6836 10.2105 41.9708 9.99507 42.2946 9.8503C42.6183 9.70552 42.9703 9.63503 43.3248 9.64399C44.2052 9.64399 44.9315 9.90821 45.4378 10.4587C45.944 11.0091 46.1861 11.8899 46.1861 13.0348V20.411H49.2676V12.7486C49.2676 9.02748 46.7144 6.97977 43.6109 6.97977ZM54.7041 3.61096H51.6447V15.7431C51.6667 18.8256 53.2074 20.6311 56.553 20.6532C57.9837 20.6532 58.8201 20.1908 59.1723 19.4422V17.5266C58.622 17.7688 57.8737 17.8788 56.9492 17.8788C56.2449 17.8788 55.6726 17.7027 55.2764 17.2844C54.8802 16.866 54.6821 16.2275 54.6821 15.3247V9.64399H57.3674C58.688 9.64399 59.2383 8.80729 59.2383 8.19078V6.95775H54.7041V3.61096ZM113.142 6.97977C109.004 6.97977 107.221 9.79812 107.199 12.5724L107.221 20.411H110.281V12.7926C110.281 11.8018 110.545 11.0311 110.985 10.4807C111.215 10.2105 111.502 9.99507 111.826 9.8503C112.149 9.70552 112.501 9.63503 112.856 9.64399C113.736 9.64399 114.462 9.90821 114.969 10.4807C115.475 11.0532 115.717 11.8899 115.717 13.0348V20.411H118.777V12.7486C118.799 9.02748 116.267 6.97977 113.142 6.97977ZM87.4999 6.97977C85.7611 6.97977 84.6826 8.01463 84.0443 8.96142L83.8022 9.31371V3.61096H80.7425V14.0256C80.7425 18.4513 83.4058 20.6532 86.8614 20.6532C90.8013 20.6532 93.2885 17.5486 93.2885 13.5853C93.2885 9.68803 90.7795 6.97977 87.4999 6.97977ZM87.2136 18.033C86.2011 18.033 85.2987 17.7467 84.7044 16.9981C84.1101 16.2495 83.824 15.1045 83.824 13.5412C83.824 11.4055 85.1226 9.66601 86.8834 9.64399C87.9179 9.64399 88.7543 9.93022 89.3266 10.6568C89.8989 11.3834 90.185 12.4844 90.185 14.1357C90.163 16.3596 88.9525 18.033 87.2136 18.033ZM99.6054 6.97977C97.7345 6.97977 96.502 7.48619 95.6436 8.14674V10.3045C96.7223 9.79166 97.905 9.53544 99.0992 9.55592C100.112 9.55592 100.992 9.71004 101.498 10.1064C102.005 10.5027 102.247 11.1853 102.247 12.1541V12.4623H100.926C95.9957 12.4843 94.367 14.2238 94.367 16.5357C94.367 18.9137 96.4799 20.6532 99.6274 20.6532H100.31C103.237 20.6532 105.262 18.7596 105.262 15.9853V12.9027C105.284 8.2128 102.577 7.00179 99.6054 6.97977ZM102.291 16.0073C102.291 16.7119 102.115 17.2623 101.718 17.6587C101.322 18.055 100.75 18.2091 100.002 18.2091C99.367 18.2417 98.7376 18.0804 98.1968 17.7467C97.9826 17.5965 97.8098 17.3947 97.6944 17.1599C97.5789 16.9251 97.5246 16.665 97.5364 16.4036C97.517 16.1252 97.577 15.8471 97.7095 15.6015C97.842 15.3559 98.0415 15.153 98.2848 15.0165C98.8131 14.7082 99.6715 14.5761 100.948 14.5761H102.291V16.0073ZM127.581 13.4532L127.515 13.3651L127.581 13.277C128.923 11.5816 131.851 8.27886 132.929 7.28803H131.234C130.156 7.28803 129.43 7.39811 128.659 8.12473C127.118 9.57794 125.842 11.2954 124.543 12.9688L124.301 13.299L124.323 3.61097H121.219V20.3889H124.323V13.5853L124.565 13.9155C126.04 15.8752 127.536 17.8568 129.253 19.6183C129.827 20.1586 130.578 20.4716 131.366 20.499C132.225 20.499 132.709 20.2789 133.039 19.8825C132.159 18.8477 128.637 14.7302 127.581 13.4532Z" fill="#FEF7FB"/>
</svg>
