<svg width="92" height="24" viewBox="0 0 92 24" fill="none" xmlns="http://www.w3.org/2000/svg">
<g clip-path="url(#clip0_1315_1164)">
<path d="M61.7408 0H54.7352C54.2563 0 53.8486 0.348547 53.774 0.821463L50.9409 18.785C50.8849 19.1395 51.1585 19.4607 51.5177 19.4607H55.1121C55.4471 19.4607 55.7333 19.2167 55.785 18.8855L56.5888 13.7926C56.6631 13.3194 57.0709 12.9712 57.5504 12.9712H59.7673C64.3815 12.9712 67.0446 10.7379 67.7407 6.31163C68.054 4.3762 67.7533 2.85481 66.8469 1.79028C65.8507 0.619009 64.0846 0 61.7408 0ZM62.5494 6.56068C62.1665 9.07545 60.2462 9.07545 58.3882 9.07545H57.3319L58.073 4.38029C58.1181 4.09692 58.3627 3.88786 58.6499 3.88786H59.1344C60.3989 3.88786 61.5938 3.88786 62.2093 4.60825C62.5774 5.03898 62.6889 5.67782 62.5494 6.56068Z" fill="white"/>
<path d="M11.7762 0H4.77063C4.29173 0 3.88399 0.348547 3.80906 0.821463L0.975971 18.785C0.920241 19.1395 1.19417 19.4607 1.5531 19.4607H4.89815C5.37705 19.4607 5.78479 19.1122 5.85972 18.6389L6.6242 13.7926C6.69882 13.3194 7.10656 12.9712 7.58546 12.9712H9.80237C14.4169 12.9712 17.08 10.7379 17.7761 6.31163C18.0894 4.3762 17.7887 2.85481 16.8826 1.79028C15.8854 0.619009 14.1197 0 11.7762 0ZM12.5844 6.56068C12.2016 9.07545 10.281 9.07545 8.42361 9.07545H7.36663L8.1078 4.38029C8.15283 4.09692 8.39716 3.88786 8.68462 3.88786H9.16919C10.4337 3.88786 11.6282 3.88786 12.2438 4.60825C12.6122 5.03898 12.7236 5.67782 12.5844 6.56068Z" fill="white"/>
<path d="M32.7161 6.4804H29.3619C29.0747 6.4804 28.8301 6.68947 28.7851 6.97347L28.6374 7.91143L28.4028 7.57201C27.6761 6.51693 26.0571 6.16492 24.4403 6.16492C20.7345 6.16492 17.5683 8.97344 16.9521 12.9129C16.6313 14.8776 17.0865 16.7558 18.2008 18.0662C19.2244 19.2705 20.6854 19.7718 22.4259 19.7718C25.4129 19.7718 27.07 17.8524 27.07 17.8524L26.9202 18.785C26.8638 19.1396 27.1377 19.4607 27.497 19.4607H30.518C30.9969 19.4607 31.4044 19.1122 31.4793 18.6393L33.2932 7.15546C33.3486 6.80061 33.075 6.4804 32.7161 6.4804ZM28.0407 13.0099C27.7171 14.9268 26.1954 16.2133 24.2546 16.2133C23.2817 16.2133 22.5027 15.9003 22.0021 15.3081C21.5059 14.7205 21.3192 13.884 21.4766 12.952C21.7785 11.0524 23.3248 9.72406 25.236 9.72406C26.1884 9.72406 26.962 10.0402 27.4724 10.6378C27.9863 11.2401 28.1881 12.0823 28.0407 13.0099Z" fill="white"/>
<path d="M82.6807 6.4804H79.3265C79.039 6.4804 78.7944 6.68947 78.7497 6.97347L78.6017 7.91143L78.3674 7.57201C77.6404 6.51693 76.0218 6.16492 74.405 6.16492C70.6988 6.16492 67.5329 8.97344 66.917 12.9129C66.5959 14.8776 67.0518 16.7558 68.1658 18.0662C69.1894 19.2705 70.6506 19.7718 72.3908 19.7718C75.3779 19.7718 77.035 17.8524 77.035 17.8524L76.8851 18.785C76.8287 19.1396 77.1023 19.4607 77.4619 19.4607H80.483C80.9619 19.4607 81.369 19.1122 81.4442 18.6393L83.2578 7.15546C83.3139 6.80061 83.0396 6.4804 82.6807 6.4804ZM78.006 13.0099C77.682 14.9268 76.1606 16.2133 74.2198 16.2133C73.2463 16.2133 72.468 15.9003 71.967 15.3081C71.4711 14.7205 71.2841 13.884 71.4415 12.952C71.7438 11.0524 73.2894 9.72406 75.2006 9.72406C76.1527 9.72406 76.9263 10.0402 77.4374 10.6378C77.9506 11.2401 78.1527 12.0823 78.006 13.0099Z" fill="white"/>
<path d="M50.584 6.48035H47.2122C46.8897 6.48035 46.5884 6.64061 46.4068 6.90698L41.7557 13.7573L39.7844 7.17492C39.6606 6.76277 39.2818 6.48035 38.8521 6.48035H35.5376C35.1374 6.48035 34.8559 6.87392 34.9847 7.25301L38.6975 18.1508L35.2054 23.0777C34.9312 23.4647 35.2079 23.9996 35.6821 23.9996H39.0501C39.3697 23.9996 39.6685 23.8432 39.8502 23.5809L51.0638 7.39721C51.3321 7.00994 51.0547 6.48035 50.584 6.48035Z" fill="white"/>
<path d="M86.6367 0.493364L83.7611 18.7856C83.7054 19.1402 83.979 19.461 84.338 19.461H87.2299C87.7088 19.461 88.1166 19.1125 88.1918 18.6395L91.0268 0.675981C91.0828 0.321452 90.8092 0.000611768 90.45 0.000611768H87.2139C86.9261 -1.79465e-05 86.6814 0.209362 86.6367 0.493364Z" fill="white"/>
</g>
<defs>
<clipPath id="clip0_1315_1164">
<rect width="90.0643" height="24" fill="white" transform="translate(0.96875)"/>
</clipPath>
</defs>
</svg>
