<svg width="74" height="70" viewBox="0 0 74 70" fill="none" xmlns="http://www.w3.org/2000/svg">
<path d="M72.9956 22.5584C72.9786 22.361 72.872 22.1824 72.7067 22.0739L65.2368 17.2807L65.4153 7.72885C65.4191 7.53139 65.3314 7.34277 65.1768 7.21913C65.0216 7.09485 64.8185 7.04817 64.6248 7.0917L55.7954 9.21637L51.2148 1.81458C51.0325 1.52818 50.6572 1.4386 50.3651 1.61019L43.0226 6.11454L36.369 0.650083C36.2214 0.53716 36.0334 0.490477 35.8504 0.52265C35.6681 0.556717 35.5104 0.668377 35.417 0.828609L31.2357 8.0689L23.0434 7.21914C22.8264 7.19769 22.6125 7.28917 22.4781 7.46139C22.3438 7.63361 22.3072 7.86325 22.381 8.0689L24.7946 15.241L22.4743 17.0086H1.63783C1.46812 17.0067 1.30411 17.073 1.18424 17.1928C1.06438 17.3127 0.99815 17.4767 1.00004 17.6464V45.2045C1.00004 45.5565 1.28581 45.8423 1.63783 45.8423H7.52686V51.7912C7.52749 51.9786 7.61139 52.1558 7.75649 52.2751C7.86815 52.376 8.01389 52.4303 8.16402 52.4277H8.27442C8.53811 52.3766 14.5798 51.272 16.0502 45.8335H21.1917V46.2498C21.1917 56.7194 31.6272 65.2436 44.4587 65.2436C45.5949 65.243 46.7304 65.1723 47.8578 65.0316C48.5946 66.4094 49.6998 67.5557 51.0506 68.3424C52.4013 69.1284 53.9437 69.5239 55.5063 69.4842C56.3668 69.4893 57.2248 69.3782 58.0556 69.153C58.2196 69.1063 58.3559 68.9921 58.4297 68.8382C58.4934 68.683 58.4934 68.5095 58.4297 68.3543L56.5093 62.4054C63.4518 59.0063 67.6924 52.8536 67.6924 46.2593C67.6867 43.5485 66.9903 40.8845 65.67 38.5174L67.1146 38.7722C67.3234 38.8088 67.5373 38.7382 67.6836 38.5855C67.835 38.4341 67.8962 38.2152 67.8451 38.0077L65.8907 29.305L72.7828 23.1101C72.9411 22.9732 73.0209 22.766 72.9956 22.5584ZM15.5394 44.569C15.2385 44.569 14.978 44.7772 14.9105 45.0706C14.0607 49.0563 10.3981 50.535 8.79179 51.0195V45.2062C8.79179 45.0371 8.72429 44.8756 8.60506 44.7558C8.48773 44.6328 8.32433 44.5653 8.15463 44.569H2.27383V18.3094H20.7993L17.5359 20.7912C17.375 20.9186 17.281 21.1123 17.281 21.3179C17.2899 21.5223 17.3933 21.711 17.5618 21.8277L24.7169 26.7653L22.1677 35.2635C22.1078 35.4748 22.1589 35.7013 22.304 35.8666C22.4478 36.0363 22.6717 36.1139 22.89 36.0704L25.1675 35.6881C23.0239 38.2158 21.6725 41.3197 21.2839 44.6108L15.5394 44.569ZM41.0335 27.4615C35.6051 28.0343 30.5127 30.3685 26.5358 34.1068L23.6378 34.5995L26.0426 26.6881C26.1221 26.4219 26.0237 26.1348 25.7966 25.9746L18.9978 21.2753L22.8903 18.3097L41.0588 18.3091L41.0335 27.4615ZM41.0335 38.7638L37.9316 40.7441L33.317 33.3593C33.1826 33.1378 32.9259 33.0224 32.6716 33.0703L28.9237 33.7075C32.4357 30.969 36.6346 29.2518 41.0589 28.7446L41.0335 38.7638ZM42.3085 28.6172C42.9967 28.5661 43.6938 28.5409 44.4073 28.5409C52.2085 28.5409 59.0917 31.8125 62.9667 36.7078L56.5421 35.6114C56.2791 35.5641 56.0141 35.6865 55.8791 35.9174L51.9786 42.5887L46.0296 36.2152C45.9066 36.0884 45.7394 36.0145 45.5628 36.0108C45.4417 36.0101 45.3237 36.0461 45.2228 36.113L42.3082 37.9569L42.3085 28.6172ZM32.4419 34.3958L37.167 41.9673C37.2579 42.1099 37.4011 42.2114 37.5664 42.248C37.7329 42.284 37.9064 42.2537 38.0508 42.1635L41.0336 40.2765V44.5254L22.5501 44.526C23.0207 41.0065 24.6502 37.7444 27.1819 35.2544L32.4419 34.3958ZM66.4341 46.293C66.4341 52.5391 62.2616 58.4028 55.5481 61.5893C55.2592 61.7268 55.1172 62.0587 55.2169 62.3634L57.095 68.1419C55.4598 68.5009 53.7515 68.2978 52.2463 67.5653C50.7411 66.8323 49.5273 65.6135 48.8006 64.1051C48.6921 63.895 48.4763 63.7613 48.2397 63.7569H48.1293C46.9042 63.9253 45.6691 64.0105 44.4325 64.0117C32.3056 64.0117 22.4397 56.0662 22.4397 46.2938V45.8774H41.6967C42.0468 45.873 42.3295 45.5904 42.3339 45.2402V39.4704L45.495 37.4731L51.6899 44.0846C51.8117 44.2139 51.9801 44.2877 52.1574 44.2883H52.2255C52.4255 44.2675 52.6034 44.1502 52.7012 43.9742L56.8055 36.9464L64.0376 38.2295C65.58 40.6249 66.4058 43.4114 66.4171 46.2604L66.4341 46.293ZM64.7346 28.6429C64.5592 28.7936 64.4835 29.0308 64.539 29.2554L66.3659 37.3796L64.7516 37.0989C60.7916 31.227 53.1432 27.267 44.4319 27.267C43.7177 27.267 43.0213 27.267 42.333 27.3434V17.6724C42.333 17.3203 42.0479 17.0352 41.6959 17.0352H24.5722L25.9487 15.9981C26.1632 15.8328 26.2515 15.5508 26.1702 15.2928L23.9009 8.6644L31.5493 9.4208C31.8004 9.44982 32.0433 9.32175 32.1613 9.0978L36.1464 2.11236L42.571 7.36428C42.7766 7.54155 43.0738 7.56237 43.3021 7.41538L50.466 3.03038L54.9532 10.2796C55.099 10.5111 55.3753 10.6234 55.6409 10.5597L64.1391 8.52833L63.9694 17.6126C63.9593 17.8353 64.0697 18.0466 64.2583 18.1652L71.3288 22.6948L64.7346 28.6429Z" fill="url(#paint0_linear_369_639)" stroke="url(#paint1_linear_369_639)" stroke-width="0.5"/>
<defs>
<linearGradient id="paint0_linear_369_639" x1="37" y1="0.512695" x2="47.2313" y2="69.6196" gradientUnits="userSpaceOnUse">
<stop stop-color="#E5006D"/>
<stop offset="0.479167" stop-color="#E62046"/>
<stop offset="1" stop-color="#E6332F"/>
</linearGradient>
<linearGradient id="paint1_linear_369_639" x1="37" y1="0.512695" x2="47.2313" y2="69.6196" gradientUnits="userSpaceOnUse">
<stop stop-color="#E5006D"/>
<stop offset="0.479167" stop-color="#E62046"/>
<stop offset="1" stop-color="#E6332F"/>
</linearGradient>
</defs>
</svg>
