<svg width="73" height="62" viewBox="0 0 73 62" fill="none" xmlns="http://www.w3.org/2000/svg">
<path d="M0.619149 1.98688C1.12571 2.27847 13.0554 9.13579 16.3406 9.90141C18.2784 10.3528 24.8418 9.87469 30.632 9.45186C34.4785 9.17155 38.4563 8.88116 39.1006 9.04387C40.8234 9.478 43.7731 10.7595 44.8307 12.0375C45.832 13.2478 48.4789 23.8027 48.4789 25.2862C48.4789 25.8456 48.1332 26.5861 47.7104 27.2531C46.1735 23.0717 40.4681 16.2209 40.2015 15.9026C39.999 15.6603 39.6385 15.6282 39.3968 15.8307C39.1551 16.0332 39.1224 16.3937 39.3249 16.6354C39.395 16.7191 46.3338 25.0494 46.9152 28.6368C47.3374 31.2469 47.2917 38.5402 47.227 42.6551C47.218 43.2186 46.9603 43.7442 46.5203 44.0964C46.0802 44.4485 45.5107 44.5839 44.9589 44.4687C44.197 44.3096 43.6043 43.686 43.4837 42.9176C42.8828 39.0764 41.7419 32.3503 40.8553 30.457C39.6141 27.8065 35.5925 23.4951 32.3606 23.0366C30.4633 22.7682 28.3069 23.6126 26.9938 25.1389C25.8019 26.5238 25.4373 28.2596 25.9658 30.0263C26.8109 32.8513 33.1997 38.4765 38.4108 42.6977C38.9293 43.1182 39.25 43.7156 39.3123 44.3801C39.3753 45.0458 39.1722 45.6937 38.7399 46.2045C38.0326 47.0412 36.881 47.3108 35.875 46.8743C31.1134 44.8095 19.7416 39.7426 16.9868 37.3036C13.5322 34.2434 9.12696 25.3081 9.08302 25.2184C8.94406 24.9351 8.60198 24.8181 8.31813 24.9571C8.03485 25.0961 7.91787 25.4381 8.05682 25.722C8.11621 25.8431 8.61267 26.8503 9.37877 28.265L1.0723 25.7167C0.770014 25.6246 0.451116 25.7939 0.358469 26.0956C0.265822 26.3972 0.435673 26.7167 0.736767 26.8094L10.1757 29.7057C11.8135 32.599 14.144 36.3137 16.2283 38.1599C19.105 40.7083 30.6077 45.8369 35.4191 47.9238C35.8888 48.1275 36.3806 48.2261 36.8658 48.2261C37.6366 48.2261 38.3902 47.9766 39.0167 47.5057C39.0862 47.6441 39.158 47.7818 39.2358 47.9167C40.3725 49.8853 42.2212 51.0743 43.8703 51.0743C44.409 51.0743 44.9268 50.9472 45.3912 50.6794C46.9465 49.7815 47.4555 47.593 46.6948 45.3334C46.8836 45.239 47.0647 45.1244 47.2334 44.9896C47.9407 44.4236 48.3552 43.5797 48.3689 42.6741C48.4324 38.6453 48.4764 31.589 48.0803 28.7094C48.553 28.1025 49.6214 26.5869 49.6214 25.2863C49.6214 23.7566 46.9888 12.8537 45.7107 11.3089C44.428 9.759 41.2359 8.40319 39.379 7.93525C38.5945 7.73748 35.6626 7.93881 30.5481 8.31236C25.1214 8.70788 18.3673 9.20018 16.5994 8.78864C13.4774 8.06114 1.31123 1.06718 1.1896 0.996483C0.915827 0.838509 0.566629 0.932939 0.409263 1.20671C0.251881 1.47989 0.34597 1.82951 0.619149 1.98688ZM32.2004 24.1696C34.9643 24.5615 38.6706 28.4876 39.8209 30.9433C39.9284 31.1731 40.0466 31.5045 40.1731 31.9273C36.5071 31.1244 31.0946 29.7323 30.1795 28.9337C29.1497 28.0346 28.5862 26.1087 28.3985 25.3557C29.4621 24.4548 30.9093 23.9867 32.2004 24.1696ZM39.1605 41.837C39.1498 41.8287 39.1403 41.8192 39.1296 41.8109C32.0447 36.0711 27.6454 31.6569 27.0598 29.7002C26.707 28.5208 26.8644 27.3609 27.4968 26.3751C27.8205 27.412 28.4322 28.9257 29.4275 29.7946C30.886 31.0684 38.9514 32.837 40.5049 33.1683C40.9396 34.9457 41.4491 37.5677 41.9925 40.8446C41.243 40.7341 40.5292 40.8541 39.9217 41.2045C39.6331 41.372 39.3796 41.5846 39.1605 41.837ZM44.8206 49.6897C43.5033 50.4504 41.3993 49.3767 40.2264 47.3457C40.0886 47.107 39.9668 46.8605 39.8617 46.6111C40.3202 45.9246 40.5286 45.1092 40.4497 44.2742C40.3962 43.7089 40.2151 43.1773 39.9247 42.71C40.0821 42.4956 40.2721 42.3222 40.493 42.1945C40.9634 41.9231 41.5572 41.8762 42.1897 42.0538C42.2443 42.3952 42.2995 42.7415 42.3548 43.0954C42.5484 44.3307 43.5009 45.3325 44.7255 45.5884C45.0141 45.649 45.3057 45.6656 45.592 45.6424C46.1936 47.3801 45.8907 49.0721 44.8206 49.6897Z" fill="url(#paint0_linear_369_653)"/>
<path d="M71.7616 50.6611H67.807C67.1223 50.6611 66.45 50.4289 65.9144 50.0079C65.1109 49.3766 63.8769 48.6242 62.5603 48.6242C61.1428 48.6242 60.1237 49.5126 59.5191 50.2579C59.2881 50.5423 58.9133 50.676 58.5392 50.6065L57.6621 50.4432C56.336 50.1955 55.0301 50.9747 54.6215 52.2538C54.5977 52.3287 54.5722 52.4059 54.5461 52.4837C53.6867 52.1232 52.0447 51.5543 50.617 51.7449C49.5415 51.8886 48.7754 52.4659 48.1001 52.976C47.5247 53.4101 47.027 53.7854 46.4742 53.7854C45.8755 53.7854 45.2888 53.5146 44.6682 53.2284C43.936 52.8905 43.1058 52.5068 42.1092 52.5068C40.9209 52.5068 39.8198 52.9481 39.1708 53.2723C39.0348 52.9154 38.916 52.5727 38.8139 52.2544C38.4053 50.9752 37.0982 50.1973 35.7733 50.4438L34.8955 50.6071C34.5226 50.6765 34.1473 50.5429 33.9162 50.2585C33.3117 49.5132 32.2926 48.6248 30.8744 48.6248C29.5572 48.6248 28.3238 49.3772 27.5203 50.0091C26.9841 50.4301 26.3118 50.6623 25.6271 50.6623L0.905491 50.6605C0.59015 50.6605 0.33419 50.9165 0.33419 51.2318C0.33419 51.5472 0.59015 51.8031 0.905491 51.8031H25.6271C26.5666 51.8031 27.4901 51.4842 28.2265 50.9052C28.8881 50.385 29.884 49.7656 30.8746 49.7656C31.8426 49.7656 32.5802 50.4242 33.0285 50.9771C33.5238 51.587 34.3196 51.8756 35.1047 51.7289L35.9824 51.5656C36.7414 51.4237 37.4914 51.8691 37.7248 52.6007C38.7368 55.7678 41.2505 61.0811 46.7171 61.0811C52.183 61.0811 54.6975 55.7678 55.7094 52.6007C55.9434 51.8691 56.6922 51.4237 57.4518 51.5656L58.3289 51.7289C59.114 51.8756 59.9103 51.5876 60.4057 50.9771C60.854 50.4248 61.5922 49.7656 62.5596 49.7656C63.5496 49.7656 64.546 50.3856 65.2077 50.9052C65.9441 51.4842 66.8669 51.8031 67.8071 51.8031H71.7617C72.077 51.8031 72.333 51.5472 72.333 51.2318C72.3324 50.9165 72.077 50.6611 71.7616 50.6611ZM46.7177 59.9391C43.0066 59.9391 40.8247 56.9882 39.6115 54.3295C40.1377 54.0581 41.0985 53.6489 42.1094 53.6489C42.8547 53.6489 43.5032 53.9482 44.1891 54.2647C44.8947 54.5902 45.6239 54.9275 46.4737 54.9275C47.4096 54.9275 48.1105 54.3989 48.7881 53.8876C49.4063 53.4215 49.99 52.9808 50.7679 52.8775C51.9527 52.7195 53.4178 53.2475 54.1524 53.5586C53.0235 56.3806 50.7921 59.9391 46.7177 59.9391Z" fill="url(#paint1_linear_369_653)"/>
<path d="M6.39929 54.3843C6.68909 54.259 6.82211 53.9229 6.69681 53.6331C6.5715 53.3433 6.23537 53.2103 5.94557 53.3356L4.14553 54.1147C3.85573 54.24 3.7227 54.5762 3.84801 54.866C3.94124 55.0815 4.15147 55.2104 4.37298 55.2104C4.4484 55.2104 4.5256 55.1955 4.59984 55.1635L6.39929 54.3843Z" fill="url(#paint2_linear_369_653)"/>
<path d="M6.21997 57.2667L4.81191 58.3155C4.55892 58.5037 4.50607 58.8619 4.69492 59.1148C4.80716 59.2657 4.97938 59.3452 5.15338 59.3452C5.27215 59.3452 5.39152 59.3084 5.49426 59.2318L6.90232 58.1831C7.15531 57.9948 7.20816 57.6367 7.01931 57.3837C6.83105 57.1307 6.47295 57.0785 6.21997 57.2667Z" fill="url(#paint3_linear_369_653)"/>
<path d="M19.5969 53.5704L18.1889 54.6192C17.9359 54.8074 17.883 55.1655 18.0719 55.4185C18.1841 55.5694 18.3564 55.6489 18.5304 55.6489C18.6491 55.6489 18.7685 55.6121 18.8712 55.5355L20.2793 54.4867C20.5323 54.2985 20.5851 53.9404 20.3963 53.6874C20.208 53.4344 19.8499 53.3822 19.5969 53.5704Z" fill="url(#paint4_linear_369_653)"/>
<path d="M12.7542 56.911C12.6028 56.6343 12.2554 56.5327 11.9786 56.6841C11.7019 56.8356 11.6003 57.183 11.7512 57.4597L12.7999 59.3773C12.9038 59.5673 13.0998 59.6748 13.3017 59.6748C13.3944 59.6748 13.4882 59.6522 13.5755 59.6047C13.8523 59.4533 13.9538 59.1059 13.803 58.8291L12.7542 56.911Z" fill="url(#paint5_linear_369_653)"/>
<path d="M25.5596 57.1966C25.3672 56.9466 25.0091 56.8991 24.7585 57.0915C24.5084 57.2839 24.4609 57.6426 24.6533 57.8926L25.942 59.5703C26.0549 59.717 26.2241 59.7936 26.3958 59.7936C26.5169 59.7936 26.6398 59.755 26.7432 59.6754C26.9932 59.483 27.0407 59.1243 26.8483 58.8743L25.5596 57.1966Z" fill="url(#paint6_linear_369_653)"/>
<path d="M31.1742 53.2426C31.0863 53.0401 30.8844 52.8981 30.6499 52.8981C30.3345 52.8981 30.0786 53.1541 30.0786 53.4694C30.0786 53.6993 30.0786 53.7343 33.3531 58.569C33.4636 58.7323 33.6435 58.8202 33.8265 58.8202C33.9363 58.8202 34.048 58.7881 34.1465 58.7222C34.4079 58.5452 34.4762 58.1901 34.2992 57.9288C33.1845 56.2832 31.3761 53.5935 31.1742 53.2426Z" fill="url(#paint7_linear_369_653)"/>
<path d="M35.9586 55.4773C35.7472 55.2427 35.3862 55.2237 35.1516 55.4345C34.917 55.646 34.898 56.007 35.1088 56.2416L36.7865 58.107C36.8993 58.2323 37.0549 58.2965 37.2117 58.2965C37.3477 58.2965 37.4843 58.2484 37.5935 58.1498C37.8281 57.9384 37.8471 57.5773 37.6363 57.3427L35.9586 55.4773Z" fill="url(#paint8_linear_369_653)"/>
<path d="M60.3015 53.1404C60.0206 52.9973 59.6762 53.1089 59.5331 53.3904L57.0162 58.3338C56.8731 58.6153 56.9847 58.9592 57.2662 59.1023C57.3494 59.1445 57.4378 59.1647 57.5251 59.1647C57.733 59.1647 57.9337 59.0506 58.0347 58.8523L60.5515 53.9089C60.6953 53.6274 60.583 53.2835 60.3015 53.1404Z" fill="url(#paint9_linear_369_653)"/>
<path d="M63.0837 55.7172L60.9565 57.8444C60.7332 58.0677 60.7332 58.4294 60.9565 58.6527C61.0681 58.7643 61.2142 58.8202 61.3603 58.8202C61.5064 58.8202 61.6531 58.7644 61.7641 58.6527L63.8913 56.5255C64.1146 56.3022 64.1146 55.9405 63.8913 55.7172C63.668 55.494 63.3064 55.4939 63.0837 55.7172Z" fill="url(#paint10_linear_369_653)"/>
<path d="M66.5136 56.5583C66.6164 56.5583 66.6906 56.5583 68.9906 55.8433C69.2917 55.7494 69.4604 55.4293 69.3666 55.1282C69.2733 54.8271 68.9532 54.6585 68.6516 54.7523C67.6919 55.0504 66.6157 55.3771 66.4293 55.4222C66.1538 55.4632 65.943 55.7007 65.943 55.9876C65.9424 56.3023 66.1983 56.5583 66.5136 56.5583Z" fill="url(#paint11_linear_369_653)"/>
<path d="M68.7059 57.4749L66.2194 58.9732C65.9492 59.1359 65.8619 59.4869 66.0246 59.7577C66.1321 59.9359 66.321 60.0344 66.5146 60.0344C66.6149 60.0344 66.7165 60.0077 66.8091 59.9525L69.2956 58.4541C69.5658 58.2914 69.6531 57.9405 69.4904 57.6696C69.3277 57.3994 68.9773 57.3121 68.7059 57.4749Z" fill="url(#paint12_linear_369_653)"/>
<defs>
<linearGradient id="paint0_linear_369_653" x1="36.333" y1="0.919922" x2="44.1569" y2="61.5077" gradientUnits="userSpaceOnUse">
<stop stop-color="#E5006D"/>
<stop offset="0.479167" stop-color="#E62046"/>
<stop offset="1" stop-color="#E6332F"/>
</linearGradient>
<linearGradient id="paint1_linear_369_653" x1="36.333" y1="0.919922" x2="44.1569" y2="61.5077" gradientUnits="userSpaceOnUse">
<stop stop-color="#E5006D"/>
<stop offset="0.479167" stop-color="#E62046"/>
<stop offset="1" stop-color="#E6332F"/>
</linearGradient>
<linearGradient id="paint2_linear_369_653" x1="36.333" y1="0.919922" x2="44.1569" y2="61.5077" gradientUnits="userSpaceOnUse">
<stop stop-color="#E5006D"/>
<stop offset="0.479167" stop-color="#E62046"/>
<stop offset="1" stop-color="#E6332F"/>
</linearGradient>
<linearGradient id="paint3_linear_369_653" x1="36.333" y1="0.919922" x2="44.1569" y2="61.5077" gradientUnits="userSpaceOnUse">
<stop stop-color="#E5006D"/>
<stop offset="0.479167" stop-color="#E62046"/>
<stop offset="1" stop-color="#E6332F"/>
</linearGradient>
<linearGradient id="paint4_linear_369_653" x1="36.333" y1="0.919922" x2="44.1569" y2="61.5077" gradientUnits="userSpaceOnUse">
<stop stop-color="#E5006D"/>
<stop offset="0.479167" stop-color="#E62046"/>
<stop offset="1" stop-color="#E6332F"/>
</linearGradient>
<linearGradient id="paint5_linear_369_653" x1="36.333" y1="0.919922" x2="44.1569" y2="61.5077" gradientUnits="userSpaceOnUse">
<stop stop-color="#E5006D"/>
<stop offset="0.479167" stop-color="#E62046"/>
<stop offset="1" stop-color="#E6332F"/>
</linearGradient>
<linearGradient id="paint6_linear_369_653" x1="36.333" y1="0.919922" x2="44.1569" y2="61.5077" gradientUnits="userSpaceOnUse">
<stop stop-color="#E5006D"/>
<stop offset="0.479167" stop-color="#E62046"/>
<stop offset="1" stop-color="#E6332F"/>
</linearGradient>
<linearGradient id="paint7_linear_369_653" x1="36.333" y1="0.919922" x2="44.1569" y2="61.5077" gradientUnits="userSpaceOnUse">
<stop stop-color="#E5006D"/>
<stop offset="0.479167" stop-color="#E62046"/>
<stop offset="1" stop-color="#E6332F"/>
</linearGradient>
<linearGradient id="paint8_linear_369_653" x1="36.333" y1="0.919922" x2="44.1569" y2="61.5077" gradientUnits="userSpaceOnUse">
<stop stop-color="#E5006D"/>
<stop offset="0.479167" stop-color="#E62046"/>
<stop offset="1" stop-color="#E6332F"/>
</linearGradient>
<linearGradient id="paint9_linear_369_653" x1="36.333" y1="0.919922" x2="44.1569" y2="61.5077" gradientUnits="userSpaceOnUse">
<stop stop-color="#E5006D"/>
<stop offset="0.479167" stop-color="#E62046"/>
<stop offset="1" stop-color="#E6332F"/>
</linearGradient>
<linearGradient id="paint10_linear_369_653" x1="36.333" y1="0.919922" x2="44.1569" y2="61.5077" gradientUnits="userSpaceOnUse">
<stop stop-color="#E5006D"/>
<stop offset="0.479167" stop-color="#E62046"/>
<stop offset="1" stop-color="#E6332F"/>
</linearGradient>
<linearGradient id="paint11_linear_369_653" x1="36.333" y1="0.919922" x2="44.1569" y2="61.5077" gradientUnits="userSpaceOnUse">
<stop stop-color="#E5006D"/>
<stop offset="0.479167" stop-color="#E62046"/>
<stop offset="1" stop-color="#E6332F"/>
</linearGradient>
<linearGradient id="paint12_linear_369_653" x1="36.333" y1="0.919922" x2="44.1569" y2="61.5077" gradientUnits="userSpaceOnUse">
<stop stop-color="#E5006D"/>
<stop offset="0.479167" stop-color="#E62046"/>
<stop offset="1" stop-color="#E6332F"/>
</linearGradient>
</defs>
</svg>
