<svg width="73" height="52" viewBox="0 0 73 52" fill="none" xmlns="http://www.w3.org/2000/svg">
<path d="M72.0968 23.8849H63.7486C64.9827 19.1939 64.6311 14.1279 62.4925 9.52353C60.7565 5.7862 58.2325 3.14048 55.193 1.8725C53.9731 1.36353 49.6122 -0.140139 44.7174 1.87132C39.8339 3.87864 37.5938 8.26578 36.6673 10.8314C35.7408 8.26578 33.5007 3.87879 28.6178 1.87193C23.7224 -0.139502 19.362 1.36416 18.1422 1.87311C15.1034 3.14106 12.5793 5.7862 10.8427 9.52414C8.61571 14.3192 8.32638 19.6143 9.74819 24.4657H1.23831C0.922961 24.4657 0.666992 24.7217 0.666992 25.037C0.666992 25.3524 0.922961 25.6084 1.23831 25.6084H10.1181C11.4324 29.3195 13.7688 32.7178 17.0226 35.3595L36.3068 51.0191C36.4119 51.1046 36.5396 51.1468 36.6667 51.1468C36.7944 51.1468 36.9221 51.104 37.0266 51.0191L56.3108 35.3595C59.7334 32.5801 62.141 28.9645 63.4113 25.0276L72.0957 25.0282C72.411 25.0282 72.667 24.7722 72.667 24.4569C72.667 24.1409 72.411 23.8849 72.0957 23.8849H72.0968ZM11.8802 10.0052C13.4937 6.53087 15.8116 4.08356 18.5828 2.92778C19.8501 2.39922 21.5493 2.00903 23.4165 2.00903C24.9421 2.00903 26.5802 2.26974 28.1841 2.92897C34.3636 5.46841 35.9486 12.2062 36.109 12.9663C36.1648 13.2306 36.3982 13.4201 36.6684 13.4201C36.9387 13.4201 37.1715 13.2312 37.2279 12.9663C37.3882 12.2068 38.9732 5.46857 45.1527 2.92897C48.7196 1.46326 52.451 1.96747 54.7541 2.92778C57.5252 4.08349 59.8431 6.53087 61.4567 10.0052C63.3808 14.1481 63.7752 18.6867 62.8036 22.9413L59.6062 17.2132C59.5016 17.0255 59.298 16.9151 59.0865 16.9204C58.8721 16.9281 58.6803 17.0558 58.5894 17.25L52.5894 30.1172L49.5783 24.1973C49.4809 24.0054 49.2837 23.8849 49.0687 23.8849H40.5768L37.7778 17.832C37.6858 17.6331 37.4886 17.5048 37.2701 17.5006H37.2594C37.0444 17.5006 36.8478 17.6212 36.7498 17.813L28.4087 34.2116L17.6943 12.5937C17.5999 12.403 17.4069 12.2801 17.1936 12.2759C16.9822 12.267 16.7827 12.3864 16.6805 12.5735L10.6829 23.5562C9.52599 19.1269 9.86273 14.3486 11.8802 10.0048L11.8802 10.0052ZM55.5934 34.4722L36.668 49.8385L17.7442 34.4722C14.6185 31.934 12.3855 28.6604 11.149 25.0894L17.1585 14.0852L27.8907 35.7381C27.9869 35.9317 28.1835 36.0546 28.3997 36.0558H28.4026C28.6176 36.0558 28.8148 35.9352 28.9122 35.7434L37.2355 19.3799L39.6936 24.6958C39.7869 24.8983 39.9894 25.0272 40.2121 25.0272H48.719L52.103 31.6799C52.2021 31.8747 52.4088 31.9983 52.622 31.9923C52.8406 31.9887 53.0377 31.8605 53.1304 31.6627L59.1536 18.745L62.3772 24.5193C61.1859 28.3112 58.8845 31.7992 55.5932 34.4717L55.5934 34.4722Z" fill="url(#paint0_linear_369_646)" stroke="url(#paint1_linear_369_646)" stroke-width="0.5"/>
<defs>
<linearGradient id="paint0_linear_369_646" x1="36.667" y1="0.853515" x2="42.1619" y2="51.7548" gradientUnits="userSpaceOnUse">
<stop stop-color="#E5006D"/>
<stop offset="0.479167" stop-color="#E62046"/>
<stop offset="1" stop-color="#E6332F"/>
</linearGradient>
<linearGradient id="paint1_linear_369_646" x1="36.667" y1="0.853515" x2="42.1619" y2="51.7548" gradientUnits="userSpaceOnUse">
<stop stop-color="#E5006D"/>
<stop offset="0.479167" stop-color="#E62046"/>
<stop offset="1" stop-color="#E6332F"/>
</linearGradient>
</defs>
</svg>
