<svg width="50" height="62" viewBox="0 0 50 62" fill="none" xmlns="http://www.w3.org/2000/svg">
<path fill-rule="evenodd" clip-rule="evenodd" d="M26.4699 0.154118C22.1609 1.07517 18.9895 4.00622 17.8627 8.10897C17.4465 9.62403 17.4812 12.172 17.9378 13.6359C18.3918 15.0916 19.0012 16.2954 19.7818 17.2783C20.1187 17.7026 20.4409 18.1957 20.4977 18.3742C20.5547 18.5528 20.494 19.3624 20.3629 20.1737C20.0687 21.9931 20.0625 22.6412 20.3369 22.868C20.6239 23.1049 20.9297 22.9749 22.2912 22.0367C24.2448 20.6908 24.2227 20.6976 25.5549 21.0419C27.1587 21.4564 29.5752 21.4493 31.1118 21.0255C34.1506 20.1874 36.753 18.0891 38.145 15.3549C39.5671 12.5616 39.619 8.94653 38.2778 6.09727C37.7149 4.90124 37.397 4.48224 35.9926 3.08441C34.6206 1.71878 33.2174 0.882762 31.4507 0.37841C30.0659 -0.0168759 27.7566 -0.120858 26.4699 0.154118ZM27.0016 6.87675C28.0222 7.13262 28.7242 7.79102 28.9426 8.69713C29.1504 9.55949 29.0062 10.0064 28.4752 10.1446C28.0539 10.2542 27.5532 9.76514 27.5532 9.244C27.5532 8.09757 25.5047 7.51574 24.6088 8.40752C23.8376 9.17514 24.4093 9.86557 26.5578 10.7618C27.318 11.0789 28.1254 11.5013 28.3517 11.7001C30.0041 13.1526 29.2368 15.5173 26.9746 15.9444C26.0235 16.1239 24.8394 15.9582 24.131 15.5464C23.1538 14.9783 22.438 13.4709 22.7535 12.6452C22.8853 12.3001 22.9896 12.243 23.4131 12.2837C23.876 12.328 23.9314 12.3927 24.1052 13.0941C24.2092 13.5134 24.472 14.0333 24.6891 14.2495C25.0378 14.5967 25.2116 14.6426 26.1763 14.6426C27.3595 14.6426 27.708 14.4272 27.708 13.6961C27.708 12.9843 27.3715 12.5919 26.3343 12.0942C23.9317 10.9411 23.637 10.7703 23.3428 10.3605C23.1727 10.1236 22.9963 9.6533 22.9508 9.31547C22.7021 7.46921 24.6608 6.29013 27.0016 6.87675ZM35.2946 7.02294C35.4212 7.25848 35.4101 7.44087 35.2502 7.75467C35.0546 8.13794 32.2259 13.3504 31.2826 15.0653C30.8666 15.8217 30.5657 16.029 30.1273 15.8614C29.5054 15.6239 29.6579 15.1052 31.1509 12.3792C31.954 10.9128 32.9752 9.03711 33.4201 8.21111C34.1576 6.84224 34.269 6.70914 34.6776 6.70914C34.9702 6.70914 35.1844 6.81806 35.2946 7.02294ZM45.4244 24.5059C41.5726 25.925 38.3678 35.0967 40.507 38.5788C41.8467 40.7593 45.0002 40.3055 47.8663 37.5197C49.207 36.2166 49.2932 35.9527 48.7604 34.7843C48.3558 33.8971 47.9288 33.9028 47.1708 34.8056C46.3047 35.8367 44.8409 36.7489 44.0569 36.7461C43.7048 36.7447 43.3402 36.6928 43.2465 36.6306C42.738 36.2926 42.5768 35.1888 42.8785 34.1082C43.0215 33.5955 43.0941 33.5388 43.7261 33.4444C44.755 33.2908 46.4053 32.4018 47.3234 31.5066C48.3869 30.4694 49.3664 28.5412 49.4836 27.254C49.587 26.1204 49.1996 25.2435 48.3702 24.7333C47.664 24.2987 46.277 24.1917 45.4244 24.5059ZM35.7531 26.0036C35.3719 26.1957 34.7695 26.715 34.4013 27.169L33.7371 27.9876L33.8326 27.3925C33.9523 26.6477 33.7399 26.4488 32.6933 26.3254C31.9963 26.2431 31.8964 26.2704 31.687 26.6002C31.5593 26.8016 31.0226 29.2144 30.4944 31.962C29.9663 34.7096 29.4994 37.0479 29.457 37.158C29.4144 37.2682 29.1521 37.4985 28.8738 37.6696C27.3937 38.58 27.3556 37.6753 28.6307 31.8919C29.0596 29.9469 29.4104 28.1345 29.4104 27.8645C29.4104 27.2623 29.1004 26.9322 28.415 26.8042C27.6083 26.6535 27.3441 26.7653 27.0392 27.3865L26.7573 27.9606L26.3089 27.6306C25.6908 27.1759 24.3736 27.0754 23.6708 27.4298C21.9166 28.3137 20.6387 30.1016 19.5427 33.2053C18.8834 35.0719 18.676 36.4357 18.7667 38.3074C18.8845 40.7425 19.4517 41.7523 20.9227 42.1467C22.237 42.4988 23.6951 41.8008 24.4381 40.4637L24.8052 39.803L25.0827 40.42C25.2353 40.7593 25.5159 41.1198 25.7062 41.2212C26.2524 41.5122 27.1696 41.4231 28.0236 40.9961L28.8098 40.6031L28.7038 41.3074C28.6453 41.6947 28.5185 42.3657 28.4221 42.7986L28.2464 43.5856L24.2242 44.181C22.0118 44.5085 19.0005 45.0021 17.5321 45.2778C16.0638 45.5536 14.8624 45.758 14.8624 45.7321C14.8624 45.7063 15.3787 43.8649 16.0098 41.6403C18.8668 31.5696 19.6812 28.5757 19.6323 28.3228C19.6034 28.1733 19.3926 27.9856 19.164 27.9055C18.5184 27.6796 17.5211 28.0523 16.7863 28.794C16.2186 29.3669 16.0499 29.7415 15.1116 32.5121C14.5375 34.2066 13.7996 36.1476 13.4715 36.8254C12.492 38.8487 11.4359 39.825 10.5715 39.5068C9.82259 39.231 9.9108 38.2502 11.0056 34.6791C11.8797 31.828 11.9584 30.9732 11.3952 30.4465C11.0065 30.0831 10.1863 29.8354 9.70759 29.937C9.34405 30.0141 9.13604 30.5797 9.13604 31.4909C9.13604 31.9769 8.90111 32.8538 8.43356 34.1122C7.13878 37.5977 6.65746 40.3557 7.10799 41.7087C7.2123 42.0222 7.53963 42.4902 7.83539 42.7485C8.95094 43.7235 10.7931 43.2748 12.3125 41.658C12.6935 41.2526 13.0047 40.9353 13.0041 40.9528C12.997 41.1595 11.1409 46.5199 11.0456 46.6088C10.9742 46.6755 10.3732 46.9527 9.71023 47.2249C6.07307 48.7176 2.78026 51.7853 1.35765 55.0061C0.150006 57.7401 0.217175 59.7224 1.56256 61.0617C2.34645 61.8418 3.00065 62.0616 4.31368 61.986C5.62223 61.9105 6.5482 61.4701 7.78292 60.3363C10.0468 58.2571 11.8757 55.0033 13.3909 50.3586L13.6496 49.5655L14.6042 49.3273C17.532 48.5966 26.2931 46.9155 27.1725 46.9155C27.5774 46.9155 27.6777 46.9688 27.6088 47.1478C27.4368 47.5935 27.7129 48.4521 28.1118 48.7122C28.4713 48.9466 28.5411 48.9471 29.0261 48.7168C29.5982 48.4454 29.9444 47.9088 30.1081 47.0401C30.1974 46.566 30.2866 46.4694 30.7018 46.3965C31.5301 46.2513 38.1609 45.3986 41.0179 45.0702C45.586 44.5449 45.9704 44.4123 45.9704 43.3612C45.9704 42.5674 45.8509 42.3201 45.3402 42.0573C44.5113 41.6306 40.9083 41.8842 33.2153 42.9108C31.9456 43.0802 30.8785 43.1905 30.8439 43.156C30.7707 43.0833 31.2636 39.6312 31.3611 39.5322C31.3968 39.4958 31.6369 39.6211 31.8944 39.8107C32.1518 40.0002 32.6472 40.2551 32.9953 40.3774C35.1583 41.1369 37.0472 39.716 38.3086 36.3805C40.0995 31.6443 39.9932 26.8847 38.075 25.9269C37.3453 25.5624 36.5778 25.5878 35.7531 26.0036ZM46.8233 27.1442C47.3723 27.6906 46.7357 29.1477 45.5564 30.0439C44.8866 30.5529 43.86 31.0021 43.7093 30.8519C43.5838 30.727 44.2168 29.2295 44.7351 28.4254C45.2653 27.6031 46.0193 26.8894 46.3581 26.8894C46.4732 26.8894 46.6825 27.004 46.8233 27.1442ZM36.6224 29.2295C37.0034 29.9629 36.8465 32.2732 36.2998 33.9755C35.3069 37.0685 34.1184 38.2591 32.5259 37.756C32.1852 37.6485 32.1676 37.5878 32.2651 36.8573C32.4503 35.4664 33.4308 31.9283 33.9288 30.8527C34.471 29.6818 35.3886 28.7379 35.9844 28.7379C36.2581 28.7379 36.4398 28.878 36.6224 29.2295ZM26.1859 30.1958C26.3977 30.6584 26.1367 31.829 25.1367 34.8998C24.3898 37.1934 23.9735 38.0264 23.3403 38.4938C22.9907 38.7518 22.8541 38.775 22.536 38.6307C21.8105 38.3017 21.5941 37.7434 21.6003 36.2157C21.6062 34.7529 21.8445 33.7936 22.5501 32.391C23.5372 30.4294 25.6962 29.1258 26.1859 30.1958ZM9.83946 51.0363C9.67153 51.7207 8.5224 54.1308 7.70848 55.5057C6.77818 57.0773 5.2901 58.6949 4.55125 58.9375C4.08896 59.0894 3.9653 59.0759 3.70947 58.8454C2.77577 58.0043 4.18182 55.0274 6.5581 52.8149C7.46379 51.9715 9.46709 50.6157 9.81052 50.6134C9.88372 50.613 9.89672 50.8034 9.83946 51.0363Z" fill="white"/>
</svg>
